<?xml version="1.0" encoding="utf-8"?>
<!-- Generator: Adobe Illustrator 16.0.0, SVG Export Plug-In . SVG Version: 6.00 Build 0)  -->
<!DOCTYPE svg PUBLIC "-//W3C//DTD SVG 1.1//EN" "http://www.w3.org/Graphics/SVG/1.1/DTD/svg11.dtd">
<svg version="1.1" id="Layer_1" xmlns="http://www.w3.org/2000/svg" xmlns:xlink="http://www.w3.org/1999/xlink" x="0px" y="0px"
	 width="460.8px" height="162.2px" viewBox="0 0 460.8 162.2" enable-background="new 0 0 460.8 162.2" xml:space="preserve">
<rect fill="none" width="460.8" height="259.2"/>
<g>
	<path fill-rule="evenodd" clip-rule="evenodd" d="M357.569,154.576c-4.255,0-8.51,0-12.764,0c-0.008-0.053-0.015-0.106-0.02-0.158
		c0.586-0.115,1.174-0.241,1.763-0.344c2.837-0.499,2.838-0.497,2.838-3.463c0-19.34-0.022-38.683,0.042-58.024
		c0.005-1.507-0.466-2.076-1.861-2.204c-0.875-0.08-1.737-0.314-2.581-0.742c4.245,0,8.489,0.023,12.733-0.019
		c0.913-0.01,1.094,0.673,1.438,1.199c8.345,12.703,16.676,25.414,25.012,38.122c2.856,4.358,5.717,8.712,8.87,13.519
		c0-1.021,0-1.554,0-2.086c0-15.957-0.017-31.916,0.029-47.874c0.004-1.309-0.212-1.889-1.671-1.938
		c-1.774-0.059-3.539-0.442-5.292-0.859c4.203,0,8.407,0,12.61,0c0.015,0.059,0.029,0.118,0.043,0.177
		c-1.3,0.255-2.595,0.562-3.904,0.748c-0.653,0.092-0.876,0.357-0.832,0.973c0.028,0.392,0.005,0.789,0.005,1.184
		c0,20.356,0.003,40.712-0.022,61.069c-0.002,0.584,0.457,1.442-0.384,1.755c-0.966,0.359-1.474-0.332-1.974-1.097
		c-13.299-20.357-26.617-40.703-39.935-61.05c-0.353-0.54-0.722-1.071-1.339-1.987c0,0.938,0,1.419,0,1.899
		c0,19.455,0.018,38.909-0.037,58.364c-0.005,1.453,0.335,1.938,1.813,1.979c1.785,0.051,3.56,0.427,5.339,0.661
		C357.517,154.446,357.543,154.511,357.569,154.576z"/>
	<path fill-rule="evenodd" clip-rule="evenodd" d="M84.643,78.26c1.14-0.23,2.272-0.583,3.422-0.657
		c1.241-0.082,1.375-0.681,1.373-1.739c-0.06-19.908-0.096-39.816-0.082-59.725c0.001-1.234-0.36-1.683-1.54-1.791
		c-1.093-0.1-2.167-0.399-3.222-0.847c0.489,0,0.978,0,1.466,0c13.085,0,26.17,0.015,39.254-0.023
		c1.203-0.003,1.709,0.176,1.805,1.574c0.28,4.075,0.787,8.134,1.212,12.275c-0.748-0.222-0.881-0.834-1.168-1.276
		c-2.299-3.542-4.598-7.083-6.829-10.667c-0.531-0.853-1.072-1.231-2.124-1.222c-6.485,0.055-12.972,0.052-19.458,0.004
		c-1.09-0.008-1.547,0.129-1.538,1.408c0.062,9.08,0.052,18.161,0.009,27.241c-0.005,1.119,0.265,1.369,1.401,1.299
		c6.36-0.39,12.728-0.646,19.088-1.029c1.084-0.065,1.235,0.341,1.167,1.219c-0.059,0.746,0.257,1.539-1.116,1.453
		c-6.303-0.394-12.614-0.649-18.918-1.028c-1.18-0.071-1.645,0.039-1.635,1.434c0.07,10.095,0.056,20.19,0.011,30.286
		c-0.004,1.104,0.28,1.395,1.385,1.387c7.727-0.049,15.453-0.045,23.18-0.001c0.93,0.005,1.398-0.307,1.834-1.091
		c2.158-3.884,4.369-7.74,6.585-11.591c0.27-0.468,0.395-1.063,1.104-1.435c-0.303,4.772-0.606,9.437-0.886,14.103
		c-0.03,0.497-0.198,0.721-0.701,0.68c-0.224-0.019-0.451-0.002-0.676-0.002c-14.551,0-29.103,0-43.653-0.002
		c-0.225,0-0.449-0.022-0.673-0.034C84.696,78.393,84.67,78.326,84.643,78.26z"/>
	<path fill-rule="evenodd" clip-rule="evenodd" d="M196.358,27.351c-0.757-0.286-0.903-0.882-1.193-1.329
		c-2.326-3.59-4.638-7.19-6.924-10.806c-0.417-0.66-0.814-1.058-1.705-1.052c-6.711,0.045-13.423,0.037-20.134,0.009
		c-0.833-0.004-1.159,0.155-1.156,1.095c0.038,9.25,0.039,18.5,0,27.749c-0.004,1.036,0.342,1.15,1.266,1.097
		c6.417-0.37,12.841-0.644,19.256-1.034c1.147-0.071,1.164,0.433,1.135,1.256c-0.028,0.792,0.164,1.5-1.152,1.418
		c-6.303-0.394-12.615-0.641-18.917-1.036c-1.261-0.079-1.604,0.162-1.597,1.477c0.06,10.039,0.064,20.079-0.004,30.117
		c-0.009,1.334,0.402,1.533,1.6,1.523c7.557-0.055,15.115-0.05,22.672-0.002c1.086,0.007,1.698-0.263,2.244-1.267
		c2.098-3.853,4.309-7.644,6.499-11.445c0.269-0.466,0.384-1.07,1.086-1.391c-0.301,4.706-0.611,9.327-0.875,13.951
		c-0.039,0.685-0.294,0.881-0.916,0.82c-0.335-0.033-0.676-0.005-1.015-0.005c-13.987,0-27.974,0-41.96,0c-0.62,0-1.238,0-1.857,0
		c-0.012-0.075-0.024-0.151-0.036-0.227c1.146-0.235,2.284-0.585,3.442-0.674c1.12-0.087,1.345-0.563,1.341-1.595
		c-0.048-12.408-0.05-24.815-0.068-37.223c-0.011-7.558-0.054-15.115-0.021-22.672c0.005-1.095-0.216-1.629-1.401-1.727
		c-1.145-0.094-2.27-0.422-3.37-0.878c3.776,0,7.553,0,11.33,0c9.87,0,19.74,0.021,29.609-0.027
		c1.142-0.005,1.489,0.257,1.581,1.442C195.439,19.015,195.92,23.102,196.358,27.351z"/>
	<path fill-rule="evenodd" clip-rule="evenodd" d="M450.491,103.467c-0.748-0.221-0.881-0.833-1.168-1.276
		c-2.298-3.541-4.598-7.083-6.829-10.667c-0.53-0.852-1.071-1.231-2.123-1.222c-6.485,0.055-12.972,0.052-19.458,0.003
		c-1.09-0.008-1.548,0.128-1.538,1.408c0.063,9.08,0.052,18.16,0.01,27.241c-0.006,1.119,0.264,1.369,1.401,1.299
		c6.359-0.39,12.727-0.647,19.087-1.029c1.084-0.065,1.236,0.34,1.166,1.218c-0.058,0.745,0.259,1.539-1.115,1.453
		c-6.303-0.393-12.614-0.648-18.917-1.028c-1.18-0.07-1.646,0.038-1.636,1.434c0.07,10.094,0.055,20.189,0.011,30.286
		c-0.005,1.103,0.279,1.394,1.386,1.389c7.726-0.052,15.452-0.048,23.179-0.003c0.931,0.006,1.399-0.306,1.834-1.091
		c2.158-3.885,4.37-7.739,6.586-11.592c0.27-0.469,0.396-1.063,1.104-1.435c-0.305,4.772-0.606,9.437-0.888,14.103
		c-0.029,0.497-0.197,0.721-0.699,0.681c-0.225-0.019-0.452-0.003-0.678-0.003c-14.55,0-29.101-0.002-43.652-0.002
		c-0.225,0-0.448-0.021-0.717-0.241c1.073-0.213,2.142-0.561,3.223-0.605c1.409-0.057,1.545-0.783,1.537-1.953
		c-0.049-7.275-0.028-14.551-0.04-21.826c-0.021-12.463-0.082-24.927-0.032-37.391c0.005-1.505-0.448-2.096-1.877-2.212
		c-0.982-0.079-1.952-0.339-2.895-0.764c0.489,0,0.979,0,1.466,0c13.086,0,26.17,0.014,39.255-0.023
		c1.202-0.004,1.71,0.175,1.805,1.573C449.56,95.267,450.065,99.325,450.491,103.467z"/>
	<path fill-rule="evenodd" clip-rule="evenodd" d="M212.746,89.525c3.75,0,7.5,0,11.41,0c-0.847,0.676-1.816,0.702-2.653,0.747
		c-1.569,0.085-1.839,0.812-1.833,2.243c0.053,13.925,0.038,27.849,0.029,41.774c-0.003,3.975-0.521,7.857-2.245,11.501
		c-2.759,5.832-7.56,8.95-13.728,10.045c-6.048,1.074-12.055,0.657-17.773-1.655c-8.341-3.374-12.09-10.015-12.191-18.699
		c-0.166-14.093-0.052-28.188-0.056-42.282c0-2.487,0-2.486-2.461-2.975c-0.656-0.13-1.311-0.269-1.956-0.603
		c5.814,0,11.627,0,17.442,0c0.013,0.057,0.027,0.113,0.041,0.17c-1.352,0.219-2.701,0.459-4.058,0.651
		c-0.804,0.114-1.232,0.336-1.229,1.337c0.047,14.882,0.007,29.766,0.072,44.648c0.015,3.518,0.762,6.942,2.366,10.108
		c2.864,5.66,7.581,8.443,13.845,8.651c2.826,0.092,5.636-0.212,8.354-1.025c7.355-2.208,11.123-7.42,12.254-14.793
		c0.283-1.84,0.349-3.698,0.347-5.562c-0.014-13.812-0.045-27.624,0.045-41.436c0.01-1.563-0.592-1.876-1.845-2.002
		c-1.412-0.142-2.814-0.378-4.22-0.575C212.717,89.705,212.731,89.615,212.746,89.525z"/>
	<path fill-rule="evenodd" clip-rule="evenodd" d="M286.238,13.306c5.526,0,11.053,0,16.756,0c-0.907,0.788-1.952,0.731-2.857,0.832
		c-1.284,0.141-1.623,0.644-1.618,1.921c0.05,13.308,0.031,26.616,0.031,39.924c0,6.597,0.039,13.195-0.033,19.792
		c-0.015,1.269,0.337,1.802,1.595,1.904c0.988,0.079,1.957,0.361,2.914,0.729c-5.691,0-11.384,0-17.075,0
		c-0.011-0.047-0.022-0.094-0.032-0.141c1.298-0.258,2.59-0.57,3.898-0.752c0.73-0.102,0.974-0.415,0.916-1.096
		c-0.029-0.335-0.004-0.676-0.004-1.014c0-19.68-0.016-39.36,0.03-59.04c0.003-1.432-0.257-2.196-1.846-2.228
		c-0.913-0.018-1.821-0.35-2.732-0.541C286.201,13.5,286.221,13.403,286.238,13.306z"/>
	<path fill-rule="evenodd" clip-rule="evenodd" d="M326.31,13.56c5.669,0,11.336,0,17.004,0c0.017,0.073,0.034,0.146,0.052,0.218
		c-0.861,0.158-1.718,0.389-2.586,0.458c-1.472,0.116-1.971,0.686-1.96,2.294c0.089,12.792,0.049,25.585,0.049,38.377
		c0,6.931,0.055,13.864-0.047,20.793c-0.02,1.406,0.446,1.857,1.693,1.996c0.977,0.108,1.94,0.356,2.875,0.742
		c-5.702,0-11.404,0-17.104,0c-0.009-0.06-0.018-0.12-0.025-0.179c1.303-0.254,2.599-0.57,3.913-0.735
		c0.748-0.094,0.968-0.406,0.894-1.082c-0.023-0.223-0.004-0.45-0.004-0.676c0-19.837-0.01-39.674,0.025-59.51
		c0.002-1.201-0.201-1.851-1.551-1.924c-1.092-0.061-2.169-0.385-3.252-0.593C326.293,13.68,326.302,13.62,326.31,13.56z"/>
	<path fill-rule="evenodd" clip-rule="evenodd" d="M248.648,154.567c-5.701,0-11.401,0-17.103,0
		c-0.008-0.057-0.015-0.113-0.022-0.172c1.251-0.245,2.492-0.589,3.755-0.703c0.942-0.087,1.044-0.526,1.044-1.302
		c-0.014-20.176-0.015-40.351,0.002-60.526c0-0.806-0.164-1.189-1.069-1.282c-1.258-0.128-2.495-0.468-3.71-0.894
		c5.68,0,11.36,0,17.041,0c0.015,0.066,0.03,0.132,0.045,0.199c-1.205,0.248-2.4,0.557-3.617,0.717
		c-0.729,0.097-0.979,0.388-0.901,1.076c0.03,0.279,0.005,0.563,0.005,0.846c-0.001,19.724,0.021,39.448-0.045,59.172
		c-0.006,1.532,0.504,2.051,1.88,2.182c0.919,0.087,1.824,0.323,2.735,0.491C248.675,154.438,248.661,154.503,248.648,154.567z"/>
	<path fill-rule="evenodd" clip-rule="evenodd" d="M345.936,38.226c8.164,10.405,16.33,20.81,24.495,31.215
		c1.354,1.728,2.81,3.388,4.03,5.207c1.303,1.941,2.872,3.232,5.297,3.288c0.411,0.009,0.818,0.225,1.199,0.495
		c-6.748,0-13.497,0-20.245,0c-0.007-0.061-0.016-0.122-0.022-0.184c1.73-0.292,3.462-0.585,5.43-0.917
		c-2.551-3.309-4.977-6.459-7.405-9.606c-5.985-7.753-11.96-15.514-17.978-23.241c-0.623-0.801-0.752-1.27,0.06-2.031
		c1.554-1.46,2.987-3.049,4.473-4.585C345.662,37.666,345.773,37.993,345.936,38.226z"/>
	<path fill-rule="evenodd" clip-rule="evenodd" d="M251.183,114.366c8.165,10.405,16.331,20.81,24.495,31.215
		c1.356,1.728,2.811,3.389,4.031,5.206c1.302,1.94,2.871,3.233,5.297,3.288c0.411,0.01,0.817,0.226,1.199,0.495
		c-6.748,0-13.497,0-20.245,0c-0.009-0.062-0.016-0.122-0.023-0.184c1.731-0.293,3.463-0.584,5.43-0.918
		c-2.55-3.31-4.976-6.457-7.405-9.604c-5.984-7.755-11.958-15.515-17.977-23.242c-0.624-0.801-0.751-1.27,0.059-2.031
		c1.555-1.46,2.989-3.05,4.472-4.585C250.91,113.806,251.021,114.133,251.183,114.366z"/>
	<path fill-rule="evenodd" clip-rule="evenodd" fill="#010101" d="M346.941,36.112c6.216-6.595,12.432-13.19,18.648-19.786
		c0.454-0.482,0.906-0.965,1.55-1.647c-2.266-0.342-4.27-0.645-6.272-0.948c0.007-0.057,0.015-0.114,0.021-0.171
		c5.673,0,11.345,0,17.017,0c0.008,0.057,0.014,0.114,0.021,0.17c-1.706,0.253-3.406,0.576-5.12,0.731
		c-0.962,0.086-1.661,0.443-2.362,1.081c-7.404,6.757-14.835,13.487-22.259,20.221c-0.29,0.263-0.609,0.491-0.915,0.735
		C346.935,36.561,346.814,36.44,346.941,36.112z"/>
	<path fill-rule="evenodd" clip-rule="evenodd" fill="#010101" d="M252.188,112.252c6.217-6.595,12.433-13.19,18.648-19.785
		c0.455-0.481,0.907-0.963,1.55-1.647c-2.265-0.342-4.268-0.645-6.271-0.947c0.008-0.057,0.014-0.114,0.021-0.171
		c5.671,0,11.344,0,17.015,0c0.008,0.057,0.015,0.114,0.021,0.17c-1.705,0.253-3.405,0.577-5.12,0.732
		c-0.961,0.086-1.662,0.442-2.362,1.081c-7.404,6.756-14.833,13.487-22.259,20.221c-0.289,0.263-0.609,0.491-0.915,0.735
		C252.182,112.701,252.063,112.58,252.188,112.252z"/>
	<path fill-rule="evenodd" clip-rule="evenodd" fill="#202020" d="M346.941,36.112c0.109,0.129,0.219,0.258,0.328,0.387
		c-0.308,0.682-1.288,0.843-1.334,1.726c-0.223-0.12-0.445-0.24-0.667-0.36C345.71,37.171,346.271,36.59,346.941,36.112z"/>
	<path fill-rule="evenodd" clip-rule="evenodd" fill="#202020" d="M252.188,112.252c0.11,0.129,0.219,0.258,0.329,0.388
		c-0.306,0.682-1.287,0.843-1.334,1.726c-0.223-0.12-0.446-0.239-0.668-0.359C250.957,113.312,251.519,112.73,252.188,112.252z"/>
	<path fill-rule="evenodd" clip-rule="evenodd" d="M52.854,106.433c-0.449-7.434-4.52-12.387-11.361-15.129
		c-2.854-1.144-5.84-1.653-8.908-1.657c-8.566-0.008-17.132,0.002-25.698,0.006c0,0.112,0,0.226,0,0.338
		c0.474,0.446,1.082,0.575,1.687,0.716c2.851,0.663,2.853,0.665,2.853,3.654c0.001,18.519,0,37.037,0,55.555
		c0,0.451-0.028,0.903-0.003,1.351c0.068,1.22-0.476,1.869-1.689,2.084c-0.983,0.176-2.033,0.22-2.848,0.937
		c0,0.111,0,0.226,0,0.338c6.173,0,12.346,0,18.519,0c-1.432-0.482-2.861-0.818-4.306-0.916c-1.094-0.075-1.372-0.464-1.366-1.53
		c0.043-8.342,0.043-16.684-0.001-25.025c-0.006-1.041,0.25-1.325,1.302-1.308c3.944,0.063,7.891,0.054,11.835,0.005
		c3.534-0.045,6.948-0.765,10.088-2.408C49.799,119.86,53.322,114.192,52.854,106.433z M42.405,117.005
		c-2.692,5.352-7.079,8.156-13.143,8.167c-2.65,0.004-5.304-0.068-7.951,0.031c-1.232,0.045-1.611-0.236-1.59-1.544
		c0.086-5.3,0.036-10.602,0.036-15.903c0-5.357,0.034-10.716-0.028-16.072c-0.013-1.116,0.295-1.41,1.393-1.382
		c3.043,0.08,6.091-0.016,9.135,0.047c6.39,0.13,11.235,3.644,13.165,9.732C45.24,105.816,45.152,111.543,42.405,117.005z"/>
	<path fill-rule="evenodd" clip-rule="evenodd" d="M449.312,74.937c-3.85-9.776-7.967-19.445-11.986-29.153
		c-4.277-10.331-8.555-20.662-12.833-30.993c-0.268-0.646-0.354-1.358-1.41-1.317c-2.296,0.089-4.6,0.027-7.079,0.027
		c0.893,2.095,1.651,4.083,2.585,5.984c0.576,1.171,0.502,2.173,0.057,3.355c-6.328,16.769-12.69,33.527-18.85,50.357
		c-1.086,2.964-2.339,5.06-5.773,4.995c-0.051-0.001-0.104,0.159-0.129,0.201c4.458,0,8.938,0,13.419,0
		c-2.278-0.437-4.561-0.734-6.852-0.883c-1.081-0.07-1.461-0.207-1-1.411c2.177-5.665,4.29-11.354,6.358-17.058
		c0.35-0.966,0.836-1.215,1.812-1.209c6.484,0.043,12.969,0.018,19.455,0.025c2.254,0.002,5.078-0.785,6.603,0.278
		c1.592,1.109,1.962,4.003,2.813,6.137c1.725,4.324,3.416,8.662,5.146,13.057c-1.942,0.327-3.728,0.628-5.513,0.928
		c0.012,0.076,0.021,0.152,0.032,0.229c5.917,0,11.832,0,17.748,0c0-0.113,0-0.226,0-0.339
		C451.71,78.037,450.243,77.306,449.312,74.937z M432.085,57.089c-8.009,0-16.015-0.016-24.022,0.019
		c-1.096,0.004-1.492-0.088-1.018-1.34c4.147-10.927,8.232-21.876,12.335-32.819c0.076-0.204,0.084-0.454,0.555-0.542
		c4.548,11.477,9.096,22.96,13.739,34.682C433.027,57.089,432.556,57.089,432.085,57.089z"/>
	<path fill-rule="evenodd" clip-rule="evenodd" d="M64.448,39.487c-1.847-13.34-11.382-23.258-24.69-25.286
		c-10.362-1.578-20.814-0.273-31.233-0.629c1.065,0.368,2.14,0.681,3.23,0.756c1.298,0.09,1.582,0.664,1.579,1.906
		c-0.042,18.722-0.022,37.443-0.04,56.165c-0.002,1.624,0.668,3.681-0.275,4.746c-0.832,0.94-2.893,0.792-4.412,1.123
		c-0.022,0.076-0.044,0.152-0.065,0.229c7.723,0,15.446-0.015,23.169,0.007c2.828,0.008,5.636-0.184,8.41-0.712
		C51.647,75.6,59.674,69.27,63.247,57.885C65.132,51.877,65.31,45.713,64.448,39.487z M52.166,63.61
		c-3.375,6.924-8.627,11.922-16.419,13.657c-4.62,1.028-9.326,0.382-13.991,0.535c-0.992,0.033-0.629-0.757-0.631-1.221
		c-0.023-5.243-0.015-10.486-0.015-15.729c0-4.961,0-9.922,0-14.883c0-10.092,0.029-20.183-0.036-30.274
		c-0.008-1.312,0.365-1.579,1.588-1.532c4.444,0.169,8.921-0.341,13.333,0.455c7.309,1.319,12.851,5.304,15.955,12.006
		C57.611,38.846,58.163,51.308,52.166,63.61z"/>
	<path fill-rule="evenodd" clip-rule="evenodd" d="M163.536,117.855c-1.053-9.995-5.167-18.241-14.037-23.587
		c-5.293-3.188-11.149-4.505-17.257-4.589c-8.006-0.11-16.015-0.036-24.022-0.029c-0.268,0-0.598-0.136-0.861,0.237
		c1.251,0.247,2.445,0.556,3.66,0.694c0.839,0.097,1.119,0.369,1.118,1.242c-0.024,20.188-0.021,40.374-0.007,60.562
		c0,0.786-0.122,1.211-1.053,1.304c-1.26,0.124-2.498,0.467-3.746,0.718c0.009,0.077,0.018,0.154,0.026,0.231
		c7.651,0,15.301-0.016,22.952,0.009c2.884,0.008,5.748-0.174,8.58-0.706c11.605-2.188,19.63-8.578,23.217-20.027
		C163.744,128.686,164.108,123.283,163.536,117.855z M150.256,141.053c-4.659,8.596-11.99,13.216-22.05,12.906
		c-2.309-0.071-4.625-0.075-6.932,0.018c-1.127,0.044-1.38-0.313-1.375-1.397c0.042-10.203,0.024-20.409,0.024-30.612
		c0-10.035,0.026-20.07-0.032-30.105c-0.007-1.257,0.28-1.614,1.557-1.562c4.443,0.179,8.921-0.334,13.333,0.453
		c7.108,1.27,12.632,5.053,15.728,11.543C156.652,115.175,157.182,128.276,150.256,141.053z"/>
	<path fill-rule="evenodd" clip-rule="evenodd" d="M337.849,105.363c-4.797-11.268-13.643-17.261-25.981-17.367
		c-12.472-0.105-21.34,5.836-26.515,17.119c-3.765,8.209-4.177,16.893-2.614,25.646c2.434,13.629,11.761,24.988,28.027,25.611
		c0.567,0,1.134,0,1.699,0c11.396-0.573,19.954-5.796,24.812-16.134C342.646,128.81,342.78,116.95,337.849,105.363z
		 M330.049,140.531c-0.917,2.853-2.24,5.519-4.039,7.931c-7.284,9.775-21.604,9.781-28.87-0.007
		c-3.517-4.74-5.067-10.235-5.977-15.953c-0.549-3.457-0.808-6.94-0.759-8.879c0.048-8.827,0.85-15.961,3.812-22.683
		c2.513-5.697,6.294-10.113,12.598-11.79c7.352-1.953,14.671,0.587,19.187,6.69c3.4,4.596,5.025,9.898,5.883,15.454
		C333.403,121.166,333.132,130.947,330.049,140.531z"/>
	<path fill-rule="evenodd" clip-rule="evenodd" d="M266.439,30.813c-0.157-7.287-4.729-13.354-12.026-15.901
		c-2.677-0.934-5.443-1.409-8.284-1.41c-8.118-0.002-16.235-0.002-24.353,0.001c-0.341,0-0.682,0.042-1.022,0.065
		c1.032,0.384,2.062,0.658,3.106,0.745c1.322,0.109,1.663,0.667,1.66,2.014c-0.056,19.786-0.039,39.572-0.039,59.358
		c0,0.226-0.023,0.454,0.004,0.676c0.092,0.752-0.166,1.083-0.983,1.177c-1.28,0.148-2.539,0.471-3.808,0.72
		c0.012,0.064,0.025,0.127,0.037,0.191c6.083,0,12.165,0,18.247,0c-0.008-0.07-0.015-0.14-0.022-0.209
		c-1.488-0.242-2.971-0.594-4.47-0.689c-1.113-0.071-1.218-0.57-1.215-1.489c0.028-8.343,0.045-16.687-0.016-25.029
		c-0.01-1.22,0.459-1.332,1.457-1.321c3.889,0.043,7.778,0.035,11.669,0c2.954-0.026,5.813-0.609,8.56-1.7
		C262.332,45.076,266.609,38.668,266.439,30.813z M256.239,40.248c-2.646,5.744-7.156,8.813-13.602,8.788
		c-2.538-0.011-5.08-0.083-7.612,0.03c-1.354,0.061-1.808-0.229-1.779-1.701c0.105-5.244,0.042-10.49,0.042-15.734
		c0-5.357,0.03-10.715-0.026-16.073c-0.012-1.089,0.255-1.427,1.378-1.396c3.043,0.084,6.091-0.014,9.134,0.047
		c6.396,0.129,11.231,3.64,13.179,9.718C258.712,29.423,258.683,34.947,256.239,40.248z"/>
	<path fill-rule="evenodd" clip-rule="evenodd" d="M104.339,154.075c-1.793-0.094-2.475-1.229-3.097-2.758
		c-4.577-11.237-9.237-22.44-13.877-33.651c-3.695-8.928-7.396-17.853-11.105-26.775c-0.238-0.573-0.272-1.299-1.265-1.271
		c-2.344,0.067-4.691,0.021-7.199,0.021c0.877,2.077,1.598,4.023,2.515,5.871c0.603,1.215,0.578,2.256,0.106,3.504
		c-6.331,16.764-12.692,33.518-18.843,50.347c-1.091,2.987-2.389,5.015-5.791,4.972c-0.035,0-0.072,0.16-0.111,0.253
		c4.51,0,9.01,0,13.511,0c0.007-0.078,0.015-0.155,0.021-0.232c-2.744-0.291-5.489-0.584-8.365-0.891
		c2.358-6.353,4.674-12.553,6.95-18.771c0.261-0.715,0.719-0.708,1.302-0.706c8.513,0.008,17.027,0.019,25.54-0.016
		c0.89-0.005,1.269,0.295,1.564,1.112c0.821,2.269,1.749,4.504,2.637,6.749c1.527,3.858,3.057,7.715,4.609,11.632
		c-1.951,0.33-3.734,0.629-5.518,0.93c0.01,0.067,0.021,0.135,0.032,0.199c5.79,0,11.581,0,17.786,0
		C105.027,154.324,104.688,154.094,104.339,154.075z M58.383,133.169c4.354-11.613,8.666-23.113,13.154-35.086
		c4.731,11.945,9.292,23.457,13.898,35.086C76.368,133.169,67.49,133.169,58.383,133.169z"/>
</g>
</svg>
